<?xml version="1.0" encoding="utf-8" standalone="no"?>
<!DOCTYPE svg PUBLIC "-//W3C//DTD SVG 1.1//EN"
  "http://www.w3.org/Graphics/SVG/1.1/DTD/svg11.dtd">
<svg xmlns:xlink="http://www.w3.org/1999/xlink" width="419.665312pt" height="325.986375pt" viewBox="0 0 419.665312 325.986375" xmlns="http://www.w3.org/2000/svg" version="1.1">
 <metadata>
  <rdf:RDF xmlns:dc="http://purl.org/dc/elements/1.1/" xmlns:cc="http://creativecommons.org/ns#" xmlns:rdf="http://www.w3.org/1999/02/22-rdf-syntax-ns#">
   <cc:Work>
    <dc:type rdf:resource="http://purl.org/dc/dcmitype/StillImage"/>
    <dc:date>2024-03-14T13:04:37.529822</dc:date>
    <dc:format>image/svg+xml</dc:format>
    <dc:creator>
     <cc:Agent>
      <dc:title>Matplotlib v3.7.4, https://matplotlib.org/</dc:title>
     </cc:Agent>
    </dc:creator>
   </cc:Work>
  </rdf:RDF>
 </metadata>
 <defs>
  <style type="text/css">*{stroke-linejoin: round; stroke-linecap: butt}</style>
 </defs>
 <g id="figure_1">
  <g id="patch_1">
   <path d="M 0 325.986375 
L 419.665312 325.986375 
L 419.665312 0 
L 0 0 
z
" style="fill: #ffffff"/>
  </g>
  <g id="axes_1">
   <g id="patch_2">
    <path d="M 55.345313 288.430125 
L 412.465312 288.430125 
L 412.465312 22.318125 
L 55.345313 22.318125 
z
" style="fill: #ffffff"/>
   </g>
   <g id="matplotlib.axis_1">
    <g id="xtick_1">
     <g id="line2d_1">
      <defs>
       <path id="m3dc10c8212" d="M 0 0 
L 0 3.5 
" style="stroke: #000000; stroke-width: 0.8"/>
      </defs>
      <g>
       <use xlink:href="#m3dc10c8212" x="70.462388" y="288.430125" style="stroke: #000000; stroke-width: 0.8"/>
      </g>
     </g>
     <g id="text_1">
      <!-- 0 -->
      <g transform="translate(67.281138 303.028562) scale(0.1 -0.1)">
       <defs>
        <path id="DejaVuSans-30" d="M 2034 4250 
Q 1547 4250 1301 3770 
Q 1056 3291 1056 2328 
Q 1056 1369 1301 889 
Q 1547 409 2034 409 
Q 2525 409 2770 889 
Q 3016 1369 3016 2328 
Q 3016 3291 2770 3770 
Q 2525 4250 2034 4250 
z
M 2034 4750 
Q 2819 4750 3233 4129 
Q 3647 3509 3647 2328 
Q 3647 1150 3233 529 
Q 2819 -91 2034 -91 
Q 1250 -91 836 529 
Q 422 1150 422 2328 
Q 422 3509 836 4129 
Q 1250 4750 2034 4750 
z
" transform="scale(0.015625)"/>
       </defs>
       <use xlink:href="#DejaVuSans-30"/>
      </g>
     </g>
    </g>
    <g id="xtick_2">
     <g id="line2d_2">
      <g>
       <use xlink:href="#m3dc10c8212" x="132.525168" y="288.430125" style="stroke: #000000; stroke-width: 0.8"/>
      </g>
     </g>
     <g id="text_2">
      <!-- 5000 -->
      <g transform="translate(119.800168 303.028562) scale(0.1 -0.1)">
       <defs>
        <path id="DejaVuSans-35" d="M 691 4666 
L 3169 4666 
L 3169 4134 
L 1269 4134 
L 1269 2991 
Q 1406 3038 1543 3061 
Q 1681 3084 1819 3084 
Q 2600 3084 3056 2656 
Q 3513 2228 3513 1497 
Q 3513 744 3044 326 
Q 2575 -91 1722 -91 
Q 1428 -91 1123 -41 
Q 819 9 494 109 
L 494 744 
Q 775 591 1075 516 
Q 1375 441 1709 441 
Q 2250 441 2565 725 
Q 2881 1009 2881 1497 
Q 2881 1984 2565 2268 
Q 2250 2553 1709 2553 
Q 1456 2553 1204 2497 
Q 953 2441 691 2322 
L 691 4666 
z
" transform="scale(0.015625)"/>
       </defs>
       <use xlink:href="#DejaVuSans-35"/>
       <use xlink:href="#DejaVuSans-30" x="63.623047"/>
       <use xlink:href="#DejaVuSans-30" x="127.246094"/>
       <use xlink:href="#DejaVuSans-30" x="190.869141"/>
      </g>
     </g>
    </g>
    <g id="xtick_3">
     <g id="line2d_3">
      <g>
       <use xlink:href="#m3dc10c8212" x="194.587948" y="288.430125" style="stroke: #000000; stroke-width: 0.8"/>
      </g>
     </g>
     <g id="text_3">
      <!-- 10000 -->
      <g transform="translate(178.681698 303.028562) scale(0.1 -0.1)">
       <defs>
        <path id="DejaVuSans-31" d="M 794 531 
L 1825 531 
L 1825 4091 
L 703 3866 
L 703 4441 
L 1819 4666 
L 2450 4666 
L 2450 531 
L 3481 531 
L 3481 0 
L 794 0 
L 794 531 
z
" transform="scale(0.015625)"/>
       </defs>
       <use xlink:href="#DejaVuSans-31"/>
       <use xlink:href="#DejaVuSans-30" x="63.623047"/>
       <use xlink:href="#DejaVuSans-30" x="127.246094"/>
       <use xlink:href="#DejaVuSans-30" x="190.869141"/>
       <use xlink:href="#DejaVuSans-30" x="254.492188"/>
      </g>
     </g>
    </g>
    <g id="xtick_4">
     <g id="line2d_4">
      <g>
       <use xlink:href="#m3dc10c8212" x="256.650727" y="288.430125" style="stroke: #000000; stroke-width: 0.8"/>
      </g>
     </g>
     <g id="text_4">
      <!-- 15000 -->
      <g transform="translate(240.744477 303.028562) scale(0.1 -0.1)">
       <use xlink:href="#DejaVuSans-31"/>
       <use xlink:href="#DejaVuSans-35" x="63.623047"/>
       <use xlink:href="#DejaVuSans-30" x="127.246094"/>
       <use xlink:href="#DejaVuSans-30" x="190.869141"/>
       <use xlink:href="#DejaVuSans-30" x="254.492188"/>
      </g>
     </g>
    </g>
    <g id="xtick_5">
     <g id="line2d_5">
      <g>
       <use xlink:href="#m3dc10c8212" x="318.713507" y="288.430125" style="stroke: #000000; stroke-width: 0.8"/>
      </g>
     </g>
     <g id="text_5">
      <!-- 20000 -->
      <g transform="translate(302.807257 303.028562) scale(0.1 -0.1)">
       <defs>
        <path id="DejaVuSans-32" d="M 1228 531 
L 3431 531 
L 3431 0 
L 469 0 
L 469 531 
Q 828 903 1448 1529 
Q 2069 2156 2228 2338 
Q 2531 2678 2651 2914 
Q 2772 3150 2772 3378 
Q 2772 3750 2511 3984 
Q 2250 4219 1831 4219 
Q 1534 4219 1204 4116 
Q 875 4013 500 3803 
L 500 4441 
Q 881 4594 1212 4672 
Q 1544 4750 1819 4750 
Q 2544 4750 2975 4387 
Q 3406 4025 3406 3419 
Q 3406 3131 3298 2873 
Q 3191 2616 2906 2266 
Q 2828 2175 2409 1742 
Q 1991 1309 1228 531 
z
" transform="scale(0.015625)"/>
       </defs>
       <use xlink:href="#DejaVuSans-32"/>
       <use xlink:href="#DejaVuSans-30" x="63.623047"/>
       <use xlink:href="#DejaVuSans-30" x="127.246094"/>
       <use xlink:href="#DejaVuSans-30" x="190.869141"/>
       <use xlink:href="#DejaVuSans-30" x="254.492188"/>
      </g>
     </g>
    </g>
    <g id="xtick_6">
     <g id="line2d_6">
      <g>
       <use xlink:href="#m3dc10c8212" x="380.776286" y="288.430125" style="stroke: #000000; stroke-width: 0.8"/>
      </g>
     </g>
     <g id="text_6">
      <!-- 25000 -->
      <g transform="translate(364.870036 303.028562) scale(0.1 -0.1)">
       <use xlink:href="#DejaVuSans-32"/>
       <use xlink:href="#DejaVuSans-35" x="63.623047"/>
       <use xlink:href="#DejaVuSans-30" x="127.246094"/>
       <use xlink:href="#DejaVuSans-30" x="190.869141"/>
       <use xlink:href="#DejaVuSans-30" x="254.492188"/>
      </g>
     </g>
    </g>
    <g id="text_7">
     <!-- distance (m) -->
     <g transform="translate(202.357656 316.706687) scale(0.1 -0.1)">
      <defs>
       <path id="DejaVuSans-64" d="M 2906 2969 
L 2906 4863 
L 3481 4863 
L 3481 0 
L 2906 0 
L 2906 525 
Q 2725 213 2448 61 
Q 2172 -91 1784 -91 
Q 1150 -91 751 415 
Q 353 922 353 1747 
Q 353 2572 751 3078 
Q 1150 3584 1784 3584 
Q 2172 3584 2448 3432 
Q 2725 3281 2906 2969 
z
M 947 1747 
Q 947 1113 1208 752 
Q 1469 391 1925 391 
Q 2381 391 2643 752 
Q 2906 1113 2906 1747 
Q 2906 2381 2643 2742 
Q 2381 3103 1925 3103 
Q 1469 3103 1208 2742 
Q 947 2381 947 1747 
z
" transform="scale(0.015625)"/>
       <path id="DejaVuSans-69" d="M 603 3500 
L 1178 3500 
L 1178 0 
L 603 0 
L 603 3500 
z
M 603 4863 
L 1178 4863 
L 1178 4134 
L 603 4134 
L 603 4863 
z
" transform="scale(0.015625)"/>
       <path id="DejaVuSans-73" d="M 2834 3397 
L 2834 2853 
Q 2591 2978 2328 3040 
Q 2066 3103 1784 3103 
Q 1356 3103 1142 2972 
Q 928 2841 928 2578 
Q 928 2378 1081 2264 
Q 1234 2150 1697 2047 
L 1894 2003 
Q 2506 1872 2764 1633 
Q 3022 1394 3022 966 
Q 3022 478 2636 193 
Q 2250 -91 1575 -91 
Q 1294 -91 989 -36 
Q 684 19 347 128 
L 347 722 
Q 666 556 975 473 
Q 1284 391 1588 391 
Q 1994 391 2212 530 
Q 2431 669 2431 922 
Q 2431 1156 2273 1281 
Q 2116 1406 1581 1522 
L 1381 1569 
Q 847 1681 609 1914 
Q 372 2147 372 2553 
Q 372 3047 722 3315 
Q 1072 3584 1716 3584 
Q 2034 3584 2315 3537 
Q 2597 3491 2834 3397 
z
" transform="scale(0.015625)"/>
       <path id="DejaVuSans-74" d="M 1172 4494 
L 1172 3500 
L 2356 3500 
L 2356 3053 
L 1172 3053 
L 1172 1153 
Q 1172 725 1289 603 
Q 1406 481 1766 481 
L 2356 481 
L 2356 0 
L 1766 0 
Q 1100 0 847 248 
Q 594 497 594 1153 
L 594 3053 
L 172 3053 
L 172 3500 
L 594 3500 
L 594 4494 
L 1172 4494 
z
" transform="scale(0.015625)"/>
       <path id="DejaVuSans-61" d="M 2194 1759 
Q 1497 1759 1228 1600 
Q 959 1441 959 1056 
Q 959 750 1161 570 
Q 1363 391 1709 391 
Q 2188 391 2477 730 
Q 2766 1069 2766 1631 
L 2766 1759 
L 2194 1759 
z
M 3341 1997 
L 3341 0 
L 2766 0 
L 2766 531 
Q 2569 213 2275 61 
Q 1981 -91 1556 -91 
Q 1019 -91 701 211 
Q 384 513 384 1019 
Q 384 1609 779 1909 
Q 1175 2209 1959 2209 
L 2766 2209 
L 2766 2266 
Q 2766 2663 2505 2880 
Q 2244 3097 1772 3097 
Q 1472 3097 1187 3025 
Q 903 2953 641 2809 
L 641 3341 
Q 956 3463 1253 3523 
Q 1550 3584 1831 3584 
Q 2591 3584 2966 3190 
Q 3341 2797 3341 1997 
z
" transform="scale(0.015625)"/>
       <path id="DejaVuSans-6e" d="M 3513 2113 
L 3513 0 
L 2938 0 
L 2938 2094 
Q 2938 2591 2744 2837 
Q 2550 3084 2163 3084 
Q 1697 3084 1428 2787 
Q 1159 2491 1159 1978 
L 1159 0 
L 581 0 
L 581 3500 
L 1159 3500 
L 1159 2956 
Q 1366 3272 1645 3428 
Q 1925 3584 2291 3584 
Q 2894 3584 3203 3211 
Q 3513 2838 3513 2113 
z
" transform="scale(0.015625)"/>
       <path id="DejaVuSans-63" d="M 3122 3366 
L 3122 2828 
Q 2878 2963 2633 3030 
Q 2388 3097 2138 3097 
Q 1578 3097 1268 2742 
Q 959 2388 959 1747 
Q 959 1106 1268 751 
Q 1578 397 2138 397 
Q 2388 397 2633 464 
Q 2878 531 3122 666 
L 3122 134 
Q 2881 22 2623 -34 
Q 2366 -91 2075 -91 
Q 1284 -91 818 406 
Q 353 903 353 1747 
Q 353 2603 823 3093 
Q 1294 3584 2113 3584 
Q 2378 3584 2631 3529 
Q 2884 3475 3122 3366 
z
" transform="scale(0.015625)"/>
       <path id="DejaVuSans-65" d="M 3597 1894 
L 3597 1613 
L 953 1613 
Q 991 1019 1311 708 
Q 1631 397 2203 397 
Q 2534 397 2845 478 
Q 3156 559 3463 722 
L 3463 178 
Q 3153 47 2828 -22 
Q 2503 -91 2169 -91 
Q 1331 -91 842 396 
Q 353 884 353 1716 
Q 353 2575 817 3079 
Q 1281 3584 2069 3584 
Q 2775 3584 3186 3129 
Q 3597 2675 3597 1894 
z
M 3022 2063 
Q 3016 2534 2758 2815 
Q 2500 3097 2075 3097 
Q 1594 3097 1305 2825 
Q 1016 2553 972 2059 
L 3022 2063 
z
" transform="scale(0.015625)"/>
       <path id="DejaVuSans-20" transform="scale(0.015625)"/>
       <path id="DejaVuSans-28" d="M 1984 4856 
Q 1566 4138 1362 3434 
Q 1159 2731 1159 2009 
Q 1159 1288 1364 580 
Q 1569 -128 1984 -844 
L 1484 -844 
Q 1016 -109 783 600 
Q 550 1309 550 2009 
Q 550 2706 781 3412 
Q 1013 4119 1484 4856 
L 1984 4856 
z
" transform="scale(0.015625)"/>
       <path id="DejaVuSans-6d" d="M 3328 2828 
Q 3544 3216 3844 3400 
Q 4144 3584 4550 3584 
Q 5097 3584 5394 3201 
Q 5691 2819 5691 2113 
L 5691 0 
L 5113 0 
L 5113 2094 
Q 5113 2597 4934 2840 
Q 4756 3084 4391 3084 
Q 3944 3084 3684 2787 
Q 3425 2491 3425 1978 
L 3425 0 
L 2847 0 
L 2847 2094 
Q 2847 2600 2669 2842 
Q 2491 3084 2119 3084 
Q 1678 3084 1418 2786 
Q 1159 2488 1159 1978 
L 1159 0 
L 581 0 
L 581 3500 
L 1159 3500 
L 1159 2956 
Q 1356 3278 1631 3431 
Q 1906 3584 2284 3584 
Q 2666 3584 2933 3390 
Q 3200 3197 3328 2828 
z
" transform="scale(0.015625)"/>
       <path id="DejaVuSans-29" d="M 513 4856 
L 1013 4856 
Q 1481 4119 1714 3412 
Q 1947 2706 1947 2009 
Q 1947 1309 1714 600 
Q 1481 -109 1013 -844 
L 513 -844 
Q 928 -128 1133 580 
Q 1338 1288 1338 2009 
Q 1338 2731 1133 3434 
Q 928 4138 513 4856 
z
" transform="scale(0.015625)"/>
      </defs>
      <use xlink:href="#DejaVuSans-64"/>
      <use xlink:href="#DejaVuSans-69" x="63.476562"/>
      <use xlink:href="#DejaVuSans-73" x="91.259766"/>
      <use xlink:href="#DejaVuSans-74" x="143.359375"/>
      <use xlink:href="#DejaVuSans-61" x="182.568359"/>
      <use xlink:href="#DejaVuSans-6e" x="243.847656"/>
      <use xlink:href="#DejaVuSans-63" x="307.226562"/>
      <use xlink:href="#DejaVuSans-65" x="362.207031"/>
      <use xlink:href="#DejaVuSans-20" x="423.730469"/>
      <use xlink:href="#DejaVuSans-28" x="455.517578"/>
      <use xlink:href="#DejaVuSans-6d" x="494.53125"/>
      <use xlink:href="#DejaVuSans-29" x="591.943359"/>
     </g>
    </g>
   </g>
   <g id="matplotlib.axis_2">
    <g id="ytick_1">
     <g id="line2d_7">
      <defs>
       <path id="mf15823232a" d="M 0 0 
L -3.5 0 
" style="stroke: #000000; stroke-width: 0.8"/>
      </defs>
      <g>
       <use xlink:href="#mf15823232a" x="55.345313" y="267.062043" style="stroke: #000000; stroke-width: 0.8"/>
      </g>
     </g>
     <g id="text_8">
      <!-- −250 -->
      <g transform="translate(20.878125 270.861261) scale(0.1 -0.1)">
       <defs>
        <path id="DejaVuSans-2212" d="M 678 2272 
L 4684 2272 
L 4684 1741 
L 678 1741 
L 678 2272 
z
" transform="scale(0.015625)"/>
       </defs>
       <use xlink:href="#DejaVuSans-2212"/>
       <use xlink:href="#DejaVuSans-32" x="83.789062"/>
       <use xlink:href="#DejaVuSans-35" x="147.412109"/>
       <use xlink:href="#DejaVuSans-30" x="211.035156"/>
      </g>
     </g>
    </g>
    <g id="ytick_2">
     <g id="line2d_8">
      <g>
       <use xlink:href="#mf15823232a" x="55.345313" y="232.075824" style="stroke: #000000; stroke-width: 0.8"/>
      </g>
     </g>
     <g id="text_9">
      <!-- −225 -->
      <g transform="translate(20.878125 235.875043) scale(0.1 -0.1)">
       <use xlink:href="#DejaVuSans-2212"/>
       <use xlink:href="#DejaVuSans-32" x="83.789062"/>
       <use xlink:href="#DejaVuSans-32" x="147.412109"/>
       <use xlink:href="#DejaVuSans-35" x="211.035156"/>
      </g>
     </g>
    </g>
    <g id="ytick_3">
     <g id="line2d_9">
      <g>
       <use xlink:href="#mf15823232a" x="55.345313" y="197.089606" style="stroke: #000000; stroke-width: 0.8"/>
      </g>
     </g>
     <g id="text_10">
      <!-- −200 -->
      <g transform="translate(20.878125 200.888824) scale(0.1 -0.1)">
       <use xlink:href="#DejaVuSans-2212"/>
       <use xlink:href="#DejaVuSans-32" x="83.789062"/>
       <use xlink:href="#DejaVuSans-30" x="147.412109"/>
       <use xlink:href="#DejaVuSans-30" x="211.035156"/>
      </g>
     </g>
    </g>
    <g id="ytick_4">
     <g id="line2d_10">
      <g>
       <use xlink:href="#mf15823232a" x="55.345313" y="162.103387" style="stroke: #000000; stroke-width: 0.8"/>
      </g>
     </g>
     <g id="text_11">
      <!-- −175 -->
      <g transform="translate(20.878125 165.902606) scale(0.1 -0.1)">
       <defs>
        <path id="DejaVuSans-37" d="M 525 4666 
L 3525 4666 
L 3525 4397 
L 1831 0 
L 1172 0 
L 2766 4134 
L 525 4134 
L 525 4666 
z
" transform="scale(0.015625)"/>
       </defs>
       <use xlink:href="#DejaVuSans-2212"/>
       <use xlink:href="#DejaVuSans-31" x="83.789062"/>
       <use xlink:href="#DejaVuSans-37" x="147.412109"/>
       <use xlink:href="#DejaVuSans-35" x="211.035156"/>
      </g>
     </g>
    </g>
    <g id="ytick_5">
     <g id="line2d_11">
      <g>
       <use xlink:href="#mf15823232a" x="55.345313" y="127.117169" style="stroke: #000000; stroke-width: 0.8"/>
      </g>
     </g>
     <g id="text_12">
      <!-- −150 -->
      <g transform="translate(20.878125 130.916388) scale(0.1 -0.1)">
       <use xlink:href="#DejaVuSans-2212"/>
       <use xlink:href="#DejaVuSans-31" x="83.789062"/>
       <use xlink:href="#DejaVuSans-35" x="147.412109"/>
       <use xlink:href="#DejaVuSans-30" x="211.035156"/>
      </g>
     </g>
    </g>
    <g id="ytick_6">
     <g id="line2d_12">
      <g>
       <use xlink:href="#mf15823232a" x="55.345313" y="92.13095" style="stroke: #000000; stroke-width: 0.8"/>
      </g>
     </g>
     <g id="text_13">
      <!-- −125 -->
      <g transform="translate(20.878125 95.930169) scale(0.1 -0.1)">
       <use xlink:href="#DejaVuSans-2212"/>
       <use xlink:href="#DejaVuSans-31" x="83.789062"/>
       <use xlink:href="#DejaVuSans-32" x="147.412109"/>
       <use xlink:href="#DejaVuSans-35" x="211.035156"/>
      </g>
     </g>
    </g>
    <g id="ytick_7">
     <g id="line2d_13">
      <g>
       <use xlink:href="#mf15823232a" x="55.345313" y="57.144732" style="stroke: #000000; stroke-width: 0.8"/>
      </g>
     </g>
     <g id="text_14">
      <!-- −100 -->
      <g transform="translate(20.878125 60.943951) scale(0.1 -0.1)">
       <use xlink:href="#DejaVuSans-2212"/>
       <use xlink:href="#DejaVuSans-31" x="83.789062"/>
       <use xlink:href="#DejaVuSans-30" x="147.412109"/>
       <use xlink:href="#DejaVuSans-30" x="211.035156"/>
      </g>
     </g>
    </g>
    <g id="text_15">
     <!-- attenuation (dB) -->
     <g transform="translate(14.798438 196.509281) rotate(-90) scale(0.1 -0.1)">
      <defs>
       <path id="DejaVuSans-75" d="M 544 1381 
L 544 3500 
L 1119 3500 
L 1119 1403 
Q 1119 906 1312 657 
Q 1506 409 1894 409 
Q 2359 409 2629 706 
Q 2900 1003 2900 1516 
L 2900 3500 
L 3475 3500 
L 3475 0 
L 2900 0 
L 2900 538 
Q 2691 219 2414 64 
Q 2138 -91 1772 -91 
Q 1169 -91 856 284 
Q 544 659 544 1381 
z
M 1991 3584 
L 1991 3584 
z
" transform="scale(0.015625)"/>
       <path id="DejaVuSans-6f" d="M 1959 3097 
Q 1497 3097 1228 2736 
Q 959 2375 959 1747 
Q 959 1119 1226 758 
Q 1494 397 1959 397 
Q 2419 397 2687 759 
Q 2956 1122 2956 1747 
Q 2956 2369 2687 2733 
Q 2419 3097 1959 3097 
z
M 1959 3584 
Q 2709 3584 3137 3096 
Q 3566 2609 3566 1747 
Q 3566 888 3137 398 
Q 2709 -91 1959 -91 
Q 1206 -91 779 398 
Q 353 888 353 1747 
Q 353 2609 779 3096 
Q 1206 3584 1959 3584 
z
" transform="scale(0.015625)"/>
       <path id="DejaVuSans-42" d="M 1259 2228 
L 1259 519 
L 2272 519 
Q 2781 519 3026 730 
Q 3272 941 3272 1375 
Q 3272 1813 3026 2020 
Q 2781 2228 2272 2228 
L 1259 2228 
z
M 1259 4147 
L 1259 2741 
L 2194 2741 
Q 2656 2741 2882 2914 
Q 3109 3088 3109 3444 
Q 3109 3797 2882 3972 
Q 2656 4147 2194 4147 
L 1259 4147 
z
M 628 4666 
L 2241 4666 
Q 2963 4666 3353 4366 
Q 3744 4066 3744 3513 
Q 3744 3084 3544 2831 
Q 3344 2578 2956 2516 
Q 3422 2416 3680 2098 
Q 3938 1781 3938 1306 
Q 3938 681 3513 340 
Q 3088 0 2303 0 
L 628 0 
L 628 4666 
z
" transform="scale(0.015625)"/>
      </defs>
      <use xlink:href="#DejaVuSans-61"/>
      <use xlink:href="#DejaVuSans-74" x="61.279297"/>
      <use xlink:href="#DejaVuSans-74" x="100.488281"/>
      <use xlink:href="#DejaVuSans-65" x="139.697266"/>
      <use xlink:href="#DejaVuSans-6e" x="201.220703"/>
      <use xlink:href="#DejaVuSans-75" x="264.599609"/>
      <use xlink:href="#DejaVuSans-61" x="327.978516"/>
      <use xlink:href="#DejaVuSans-74" x="389.257812"/>
      <use xlink:href="#DejaVuSans-69" x="428.466797"/>
      <use xlink:href="#DejaVuSans-6f" x="456.25"/>
      <use xlink:href="#DejaVuSans-6e" x="517.431641"/>
      <use xlink:href="#DejaVuSans-20" x="580.810547"/>
      <use xlink:href="#DejaVuSans-28" x="612.597656"/>
      <use xlink:href="#DejaVuSans-64" x="651.611328"/>
      <use xlink:href="#DejaVuSans-42" x="715.087891"/>
      <use xlink:href="#DejaVuSans-29" x="783.691406"/>
     </g>
    </g>
   </g>
   <g id="line2d_14">
    <path d="M 71.57804 34.414125 
L 72.693691 42.822582 
L 73.809343 47.734466 
L 74.924994 66.062707 
L 76.040645 74.783997 
L 77.156297 85.278819 
L 78.271948 86.877561 
L 79.387599 89.311615 
L 80.503251 96.567436 
L 81.618902 97.808431 
L 82.734554 107.491021 
L 83.850206 113.809078 
L 84.965857 120.795374 
L 86.081508 123.42529 
L 87.197159 127.54917 
L 89.428462 130.98267 
L 90.544113 131.024289 
L 91.659764 132.431442 
L 92.775415 134.12646 
L 93.891068 134.025073 
L 95.006719 135.495808 
L 96.122369 136.700329 
L 97.238023 130.596518 
L 98.353674 132.173026 
L 99.469325 129.172945 
L 100.584977 130.197562 
L 101.700628 129.806716 
L 102.816279 131.923221 
L 103.93193 136.700983 
L 105.047581 137.461441 
L 106.163233 137.361547 
L 107.278884 136.351788 
L 108.394535 135.835587 
L 109.510186 134.060382 
L 110.625837 137.026418 
L 111.741489 133.787158 
L 112.85714 130.99562 
L 113.972791 133.274316 
L 115.088442 134.838266 
L 116.204096 137.652677 
L 117.319748 137.503522 
L 119.55105 141.220175 
L 120.666701 144.027606 
L 121.782349 145.189551 
L 122.898001 146.042211 
L 124.013658 146.552456 
L 125.129309 145.470653 
L 126.24496 146.672248 
L 127.360611 145.171639 
L 128.476263 142.006254 
L 129.591914 143.5668 
L 130.707565 142.489296 
L 131.823216 140.253974 
L 132.938867 141.854751 
L 134.054519 141.946496 
L 135.17017 142.58881 
L 136.285821 142.641817 
L 138.517123 140.47874 
L 139.632774 154.144531 
L 140.748426 162.21482 
L 141.864077 158.35779 
L 142.979728 157.244387 
L 144.095379 149.284314 
L 145.21103 145.3924 
L 146.326682 147.62081 
L 147.442333 150.426206 
L 148.557984 150.7344 
L 149.673635 152.646266 
L 150.789286 155.876726 
L 151.904938 156.381619 
L 153.020589 156.543362 
L 154.13624 157.241869 
L 155.251891 158.760234 
L 156.367542 225.372994 
L 157.483194 236.754287 
L 158.598845 243.841821 
L 159.714496 229.026607 
L 160.830153 236.952876 
L 161.945804 232.94484 
L 163.061456 231.095461 
L 164.177107 226.735738 
L 165.292758 223.43389 
L 166.408409 220.97878 
L 167.52406 216.28283 
L 168.639712 218.213427 
L 169.755363 216.091918 
L 170.871014 209.480448 
L 171.986665 214.797686 
L 173.10231 208.061285 
L 174.217961 205.770372 
L 175.333613 225.933416 
L 176.449264 198.023853 
L 177.564927 201.629311 
L 178.680578 216.077689 
L 179.79623 202.548447 
L 180.911881 203.280466 
L 182.027532 207.718372 
L 183.143183 204.481236 
L 184.258834 198.591286 
L 185.374486 223.389587 
L 186.490137 212.247587 
L 187.605788 220.342539 
L 188.721439 210.472389 
L 189.83709 238.759712 
L 190.952741 237.992743 
L 192.068393 237.57857 
L 193.184044 258.002682 
L 194.299695 256.15413 
L 195.415346 245.274356 
L 196.530997 238.459697 
L 197.646649 230.29175 
L 198.7623 229.192234 
L 199.877951 221.205289 
L 200.993602 253.158753 
L 202.109253 246.208698 
L 203.224905 241.878412 
L 204.340556 239.695155 
L 205.456207 237.169259 
L 206.571858 236.707039 
L 207.687509 237.142362 
L 208.803161 237.065791 
L 209.918812 224.838326 
L 211.034463 236.557812 
L 212.150114 236.01581 
L 213.265765 233.586294 
L 214.381417 235.465252 
L 215.497068 234.203404 
L 216.612719 231.723276 
L 217.72837 231.130877 
L 218.844021 230.235438 
L 219.959672 229.693886 
L 221.075324 244.120236 
L 222.190975 236.291862 
L 223.306626 238.837998 
L 224.422277 239.68064 
L 225.537928 228.267628 
L 226.65358 229.580962 
L 227.769231 230.308095 
L 228.884882 228.3967 
L 230.000533 226.739057 
L 231.116184 226.325913 
L 233.347487 225.01502 
L 234.463138 230.993692 
L 235.578789 222.369558 
L 236.69444 240.535339 
L 237.810092 240.046873 
L 238.925743 232.437945 
L 240.041394 229.665468 
L 241.157045 219.279345 
L 242.272696 218.497606 
L 243.388348 216.707379 
L 244.503999 223.751146 
L 245.61965 204.047869 
L 246.735301 223.211095 
L 247.850952 222.496319 
L 248.966604 222.148648 
L 250.082267 221.666947 
L 251.197918 221.498275 
L 252.313569 220.974107 
L 254.544872 220.486888 
L 255.660523 220.422787 
L 256.776174 219.515705 
L 257.891825 219.499932 
L 259.007476 218.920655 
L 260.123128 218.50023 
L 261.238779 218.717209 
L 262.35443 218.042226 
L 263.470081 216.910199 
L 264.585732 216.806989 
L 265.701384 214.799293 
L 266.817035 212.229251 
L 267.932686 209.112533 
L 269.048337 207.939046 
L 270.163988 244.440937 
L 271.279639 203.530494 
L 272.395291 200.034564 
L 273.510942 199.693424 
L 274.626581 195.073256 
L 275.742232 188.660497 
L 276.857883 188.919242 
L 277.973535 185.243475 
L 279.089186 189.036578 
L 280.204837 189.319327 
L 281.320488 254.776058 
L 283.55179 238.533947 
L 284.667466 244.886298 
L 285.783117 236.93361 
L 286.898768 237.371803 
L 288.01442 232.723582 
L 289.130071 230.281241 
L 290.245722 232.914229 
L 291.361373 276.334125 
L 292.477024 264.707235 
L 293.592675 256.7745 
L 294.708327 250.548786 
L 295.823978 245.93478 
L 296.939629 253.30584 
L 298.05528 251.582481 
L 299.170931 247.085549 
L 300.286583 248.196574 
L 301.402234 246.580119 
L 303.633536 241.97161 
L 304.749187 238.387445 
L 305.864839 239.344014 
L 306.98049 238.245785 
L 309.211792 236.629914 
L 310.327443 235.292758 
L 311.443095 232.789715 
L 312.558746 230.96378 
L 313.674397 229.927757 
L 314.790048 216.140308 
L 315.905699 200.793614 
L 317.021351 190.462217 
L 319.252653 183.717257 
L 320.368304 183.979046 
L 321.483955 175.533836 
L 323.715258 165.076146 
L 324.830909 164.191907 
L 325.94656 164.35139 
L 328.177862 164.209805 
L 329.293514 243.714888 
L 330.409165 230.530973 
L 331.524816 252.469351 
L 332.640467 269.593761 
L 333.756118 240.390778 
L 334.87177 235.381131 
L 335.987421 224.172989 
L 337.103072 222.819408 
L 338.218723 255.006466 
L 339.334374 220.235431 
L 340.450026 249.90811 
L 341.565677 270.216424 
L 342.681328 265.799581 
L 343.796979 263.057647 
L 344.91263 259.007292 
L 346.028282 249.691617 
L 347.143933 253.816827 
L 348.259584 247.730183 
L 351.606538 238.888696 
L 352.722189 237.648753 
L 353.83784 234.455711 
L 354.953491 233.047006 
L 357.184793 222.92181 
L 358.300445 217.673851 
L 359.416096 206.740664 
L 360.531747 204.474562 
L 361.647398 205.63853 
L 362.763049 257.618948 
L 363.878701 261.651836 
L 364.994352 245.629902 
L 366.110003 224.228097 
L 367.225654 207.962813 
L 368.341305 201.706121 
L 369.456957 200.627389 
L 370.572608 192.49866 
L 371.688259 177.965235 
L 372.80391 176.620936 
L 375.035213 173.361227 
L 376.150864 168.52537 
L 377.266515 202.444127 
L 378.382166 192.056658 
L 379.497817 168.900619 
L 380.613469 197.445108 
L 381.72912 174.948428 
L 382.844771 168.817045 
L 383.960422 183.895562 
L 385.076073 167.043978 
L 386.191724 165.675802 
L 387.307376 166.595492 
L 388.423027 165.708582 
L 389.538678 184.315217 
L 390.654329 169.133349 
L 391.76998 167.441509 
L 392.885632 166.314596 
L 394.001283 166.369663 
L 395.116934 166.112335 
L 396.232585 166.082158 
L 396.232585 166.082158 
" clip-path="url(#p02cf7e51e5)" style="fill: none; stroke: #1f77b4; stroke-width: 1.5; stroke-linecap: square"/>
   </g>
   <g id="patch_3">
    <path d="M 55.345313 288.430125 
L 55.345313 22.318125 
" style="fill: none; stroke: #000000; stroke-width: 0.8; stroke-linejoin: miter; stroke-linecap: square"/>
   </g>
   <g id="patch_4">
    <path d="M 412.465312 288.430125 
L 412.465312 22.318125 
" style="fill: none; stroke: #000000; stroke-width: 0.8; stroke-linejoin: miter; stroke-linecap: square"/>
   </g>
   <g id="patch_5">
    <path d="M 55.345312 288.430125 
L 412.465313 288.430125 
" style="fill: none; stroke: #000000; stroke-width: 0.8; stroke-linejoin: miter; stroke-linecap: square"/>
   </g>
   <g id="patch_6">
    <path d="M 55.345312 22.318125 
L 412.465313 22.318125 
" style="fill: none; stroke: #000000; stroke-width: 0.8; stroke-linejoin: miter; stroke-linecap: square"/>
   </g>
   <g id="text_16">
    <!-- Grand Canyon Path Attenuation -->
    <g transform="translate(138.736875 16.318125) scale(0.12 -0.12)">
     <defs>
      <path id="DejaVuSans-47" d="M 3809 666 
L 3809 1919 
L 2778 1919 
L 2778 2438 
L 4434 2438 
L 4434 434 
Q 4069 175 3628 42 
Q 3188 -91 2688 -91 
Q 1594 -91 976 548 
Q 359 1188 359 2328 
Q 359 3472 976 4111 
Q 1594 4750 2688 4750 
Q 3144 4750 3555 4637 
Q 3966 4525 4313 4306 
L 4313 3634 
Q 3963 3931 3569 4081 
Q 3175 4231 2741 4231 
Q 1884 4231 1454 3753 
Q 1025 3275 1025 2328 
Q 1025 1384 1454 906 
Q 1884 428 2741 428 
Q 3075 428 3337 486 
Q 3600 544 3809 666 
z
" transform="scale(0.015625)"/>
      <path id="DejaVuSans-72" d="M 2631 2963 
Q 2534 3019 2420 3045 
Q 2306 3072 2169 3072 
Q 1681 3072 1420 2755 
Q 1159 2438 1159 1844 
L 1159 0 
L 581 0 
L 581 3500 
L 1159 3500 
L 1159 2956 
Q 1341 3275 1631 3429 
Q 1922 3584 2338 3584 
Q 2397 3584 2469 3576 
Q 2541 3569 2628 3553 
L 2631 2963 
z
" transform="scale(0.015625)"/>
      <path id="DejaVuSans-43" d="M 4122 4306 
L 4122 3641 
Q 3803 3938 3442 4084 
Q 3081 4231 2675 4231 
Q 1875 4231 1450 3742 
Q 1025 3253 1025 2328 
Q 1025 1406 1450 917 
Q 1875 428 2675 428 
Q 3081 428 3442 575 
Q 3803 722 4122 1019 
L 4122 359 
Q 3791 134 3420 21 
Q 3050 -91 2638 -91 
Q 1578 -91 968 557 
Q 359 1206 359 2328 
Q 359 3453 968 4101 
Q 1578 4750 2638 4750 
Q 3056 4750 3426 4639 
Q 3797 4528 4122 4306 
z
" transform="scale(0.015625)"/>
      <path id="DejaVuSans-79" d="M 2059 -325 
Q 1816 -950 1584 -1140 
Q 1353 -1331 966 -1331 
L 506 -1331 
L 506 -850 
L 844 -850 
Q 1081 -850 1212 -737 
Q 1344 -625 1503 -206 
L 1606 56 
L 191 3500 
L 800 3500 
L 1894 763 
L 2988 3500 
L 3597 3500 
L 2059 -325 
z
" transform="scale(0.015625)"/>
      <path id="DejaVuSans-50" d="M 1259 4147 
L 1259 2394 
L 2053 2394 
Q 2494 2394 2734 2622 
Q 2975 2850 2975 3272 
Q 2975 3691 2734 3919 
Q 2494 4147 2053 4147 
L 1259 4147 
z
M 628 4666 
L 2053 4666 
Q 2838 4666 3239 4311 
Q 3641 3956 3641 3272 
Q 3641 2581 3239 2228 
Q 2838 1875 2053 1875 
L 1259 1875 
L 1259 0 
L 628 0 
L 628 4666 
z
" transform="scale(0.015625)"/>
      <path id="DejaVuSans-68" d="M 3513 2113 
L 3513 0 
L 2938 0 
L 2938 2094 
Q 2938 2591 2744 2837 
Q 2550 3084 2163 3084 
Q 1697 3084 1428 2787 
Q 1159 2491 1159 1978 
L 1159 0 
L 581 0 
L 581 4863 
L 1159 4863 
L 1159 2956 
Q 1366 3272 1645 3428 
Q 1925 3584 2291 3584 
Q 2894 3584 3203 3211 
Q 3513 2838 3513 2113 
z
" transform="scale(0.015625)"/>
      <path id="DejaVuSans-41" d="M 2188 4044 
L 1331 1722 
L 3047 1722 
L 2188 4044 
z
M 1831 4666 
L 2547 4666 
L 4325 0 
L 3669 0 
L 3244 1197 
L 1141 1197 
L 716 0 
L 50 0 
L 1831 4666 
z
" transform="scale(0.015625)"/>
     </defs>
     <use xlink:href="#DejaVuSans-47"/>
     <use xlink:href="#DejaVuSans-72" x="77.490234"/>
     <use xlink:href="#DejaVuSans-61" x="118.603516"/>
     <use xlink:href="#DejaVuSans-6e" x="179.882812"/>
     <use xlink:href="#DejaVuSans-64" x="243.261719"/>
     <use xlink:href="#DejaVuSans-20" x="306.738281"/>
     <use xlink:href="#DejaVuSans-43" x="338.525391"/>
     <use xlink:href="#DejaVuSans-61" x="408.349609"/>
     <use xlink:href="#DejaVuSans-6e" x="469.628906"/>
     <use xlink:href="#DejaVuSans-79" x="533.007812"/>
     <use xlink:href="#DejaVuSans-6f" x="592.1875"/>
     <use xlink:href="#DejaVuSans-6e" x="653.369141"/>
     <use xlink:href="#DejaVuSans-20" x="716.748047"/>
     <use xlink:href="#DejaVuSans-50" x="748.535156"/>
     <use xlink:href="#DejaVuSans-61" x="804.337891"/>
     <use xlink:href="#DejaVuSans-74" x="865.617188"/>
     <use xlink:href="#DejaVuSans-68" x="904.826172"/>
     <use xlink:href="#DejaVuSans-20" x="968.205078"/>
     <use xlink:href="#DejaVuSans-41" x="999.992188"/>
     <use xlink:href="#DejaVuSans-74" x="1066.650391"/>
     <use xlink:href="#DejaVuSans-74" x="1105.859375"/>
     <use xlink:href="#DejaVuSans-65" x="1145.068359"/>
     <use xlink:href="#DejaVuSans-6e" x="1206.591797"/>
     <use xlink:href="#DejaVuSans-75" x="1269.970703"/>
     <use xlink:href="#DejaVuSans-61" x="1333.349609"/>
     <use xlink:href="#DejaVuSans-74" x="1394.628906"/>
     <use xlink:href="#DejaVuSans-69" x="1433.837891"/>
     <use xlink:href="#DejaVuSans-6f" x="1461.621094"/>
     <use xlink:href="#DejaVuSans-6e" x="1522.802734"/>
    </g>
   </g>
  </g>
 </g>
 <defs>
  <clipPath id="p02cf7e51e5">
   <rect x="55.345313" y="22.318125" width="357.12" height="266.112"/>
  </clipPath>
 </defs>
</svg>
